<svg id="Layer_1" data-name="Layer 1" xmlns="http://www.w3.org/2000/svg" xmlns:xlink="http://www.w3.org/1999/xlink" width="160" viewBox="0 0 466.11 192.28"><defs><linearGradient id="linear-gradient" x1="167.44" y1="319" x2="572.56" y2="319" gradientUnits="userSpaceOnUse"><stop offset="0" stop-color="#00498d"/><stop offset="0.39" stop-color="#00498d"/><stop offset="0.42" stop-color="#004f92"/><stop offset="0.46" stop-color="#005ea1"/><stop offset="0.51" stop-color="#0078ba"/><stop offset="0.56" stop-color="#009cdd"/><stop offset="0.57" stop-color="#00a7e7"/><stop offset="0.76" stop-color="#00a7e7"/><stop offset="1" stop-color="#00498d"/></linearGradient><linearGradient id="linear-gradient-2" x1="342.67" y1="264.93" x2="542.44" y2="264.93" gradientUnits="userSpaceOnUse"><stop offset="0" stop-color="#ffcd1c"/><stop offset="0.38" stop-color="#ffcd1c"/><stop offset="0.4" stop-color="#f9cc1d"/><stop offset="0.42" stop-color="#eac91f"/><stop offset="0.46" stop-color="#d0c422"/><stop offset="0.49" stop-color="#abbe27"/><stop offset="0.52" stop-color="#7cb52d"/><stop offset="0.56" stop-color="#43aa34"/><stop offset="0.6" stop-color="#009e3d"/><stop offset="1" stop-color="#009e3d"/></linearGradient></defs><title>amil</title><path d="M336.6,321.63v93.51H305.06v-72.2c-19.63,11.93-40.35,21.59-63.51,26.82l-26.17,45.38H182.21l25.34-43c-20.53-2.88-37.76-13.05-40.11-18.07l1.12-2.8c13.53,11.3,36.1,18.64,63.21,12.47,114.72-26.1,179-178.33,340.69-132.3l.1,3.76C465.88,204.86,405.61,270.61,336.6,321.63Z" transform="translate(-167.44 -222.86)" style="fill:url(#linear-gradient)"/><path d="M542.44,278.42c-71.39,58-146.17-69.59-199.77-27.94l1.52-3.68c60.7-47.17,137.89,79.41,197.69,28.32Z" transform="translate(-167.44 -222.86)" style="fill:url(#linear-gradient-2)"/><path d="M213.31,362.38,275,257.72c6.61-9.92,10.73-22.3,26.43-22.3l35.16.27v67.25c-10.41,7.93-21,15.67-31.54,22.83V260.06L297.94,272,250.2,354.77a162.41,162.41,0,0,1-18.43,5.38A88,88,0,0,1,213.31,362.38Zm157.85,52.76,9.2-50.55C384.49,341.38,399.89,323,413.9,323c12.64,0,15.4,9,15.4,18.38a79.49,79.49,0,0,1-1.38,11.95l-11.49,61.81h26.89l9.42-51.24c4.37-24.36,19.07-40.9,32.86-40.9,11.26,0,15.63,7.35,15.63,18.38a81.55,81.55,0,0,1-1.38,13.1l-11.26,60.66H515.7l11.95-64.57a126.73,126.73,0,0,0,1.61-18.38c0-22.06-13.79-31.71-29.64-31.71-17,.23-32.17,8-43,24.35-.69-12.4-9.43-24.35-29-24.35-15.62,0-30.56,7.35-41.59,23h-.46l2.76-20.22H364c-1.15,9.64-3,20.91-5.28,33.77l-14.48,78.13Zm187.61,0,21.37-111.9h-28L531,415.14Zm9.94-118.75c9.65,0,17.23-6.43,17.23-16.31,0-9-6.66-14.71-15.16-14.71-8.73,0-16.78,6.21-16.78,16.32,0,8.73,6.44,14.7,14.48,14.7Zm33.36,118.75,31.49-164.53h-28L574,415.14Z" transform="translate(-167.44 -222.86)" style="fill:#00498d;fill-rule:evenodd"/></svg>