<svg id="Layer_1" data-name="Layer 1" xmlns="http://www.w3.org/2000/svg" viewBox="0 0 226.92 38.91"><title>logo</title><path d="M489.12,355.57q-5.56,0-8.77-3a12.4,12.4,0,0,1,0-16.64q3.2-3,8.75-3c3.78,0,6.71,1,8.81,3s3.15,4.79,3.15,8.39-1.05,6.34-3.15,8.34-5,3-8.78,3Zm0-21.33a7.68,7.68,0,0,0-6.17,2.57q-2.18,2.55-2.18,7.25,0,4.92,2.14,7.52a8.72,8.72,0,0,0,12.39,0q2.16-2.58,2.16-7.38t-2.16-7.4A7.6,7.6,0,0,0,489.1,334.24Z" transform="translate(-413.67 -324.36)" style="fill:#071021;fill-rule:evenodd"/><path d="M503.77,355.2q.25-2.29.38-6.71t.13-10.77c0-.73,0-1.5,0-2.32s-.05-1.66-.08-2.55h1.16q3.66,4.27,7.49,8.49t7.84,8.38v-8.78c0-1.06,0-2.25-.1-3.55s-.15-2.69-.26-4.18a6.48,6.48,0,0,0,.67.08l.67,0c.23,0,.46,0,.67,0l.61-.07c-.17,1.15-.3,3.24-.41,6.28s-.15,6.76-.15,11.18c0,.49,0,1.13,0,1.93s.05,1.77.08,2.92l-1.1,0c-.72-1-1.54-2-2.47-3s-2.13-2.39-3.63-4L506,338.59v8.74c0,1.5,0,2.9.11,4.2s.17,2.52.3,3.67l-.69-.11-.64,0-.61,0Z" transform="translate(-413.67 -324.36)" style="fill:#071021;fill-rule:evenodd"/><path d="M544.35,337.8H544a7,7,0,0,0-2.69-2.64,7.94,7.94,0,0,0-3.83-.87,7.38,7.38,0,0,0-6,2.6,10.84,10.84,0,0,0-2.16,7.17,11,11,0,0,0,2.25,7.27,7.48,7.48,0,0,0,6,2.7,8.56,8.56,0,0,0,3.68-.81,11.23,11.23,0,0,0,3.28-2.49l.36.18a10.85,10.85,0,0,0-.22,1.29c-.06.44-.09.9-.11,1.37a16.43,16.43,0,0,1-3.76,1.55,14.77,14.77,0,0,1-3.89.51q-5.28,0-8.29-3.06t-3-8.37a10.88,10.88,0,0,1,3.16-8.27c2.1-2,5-3,8.65-3a17.65,17.65,0,0,1,3.81.42,21.52,21.52,0,0,1,3.91,1.29,6.72,6.72,0,0,0-.53,1.43A13.17,13.17,0,0,0,544.35,337.8Z" transform="translate(-413.67 -324.36)" style="fill:#071021;fill-rule:evenodd"/><path d="M558.33,355.57q-5.57,0-8.77-3a12.4,12.4,0,0,1,0-16.64q3.19-3,8.75-3c3.78,0,6.71,1,8.81,3s3.15,4.79,3.15,8.39-1,6.34-3.15,8.34-5,3-8.78,3Zm0-21.33a7.68,7.68,0,0,0-6.17,2.57c-1.46,1.7-2.18,4.12-2.18,7.25s.71,5.79,2.14,7.52a8.72,8.72,0,0,0,12.39,0q2.16-2.58,2.16-7.38t-2.16-7.4A7.61,7.61,0,0,0,558.31,334.24Z" transform="translate(-413.67 -324.36)" style="fill:#071021;fill-rule:evenodd"/><path d="M579.29,355.16q-.75-2.79-3-8.49t-5.64-13.46c.32,0,.65.06,1,.08s.69,0,1.07,0,.74,0,1.07,0,.65,0,1-.08c.55,1.88,1.48,4.57,2.77,8.07l.38,1,3.42,9.26,3.12-8.21c.82-2.13,1.49-4,2-5.64s1-3.12,1.34-4.47l.08,0c.61,0,1.08.09,1.39.09l.56,0c.2,0,.49,0,.88-.08q-2.88,6.17-5.16,11.75c-1.52,3.72-2.78,7.13-3.78,10.2l-.63-.11a3.81,3.81,0,0,0-.59,0,4,4,0,0,0-.6,0A5.52,5.52,0,0,0,579.29,355.16Z" transform="translate(-413.67 -324.36)" style="fill:#071021;fill-rule:evenodd"/><path d="M592.55,355.16c.13-1.63.23-3.35.3-5.17s.11-3.74.11-5.76q0-3.44-.11-6.1c-.07-1.78-.17-3.41-.3-4.87.33.05.65.09,1,.11s.62.05.92.05.6,0,.91,0,.65-.06,1-.12c-.12,1.36-.21,2.89-.27,4.58s-.09,3.83-.09,6.4q0,3.39.09,6.05c.06,1.78.15,3.4.27,4.87a6.94,6.94,0,0,0-.86-.11c-.31,0-.66,0-1.06,0s-.75,0-1.06,0A6.43,6.43,0,0,0,592.55,355.16Z" transform="translate(-413.67 -324.36)" style="fill:#071021;fill-rule:evenodd"/><path d="M600.75,355.16c.14-1.57.24-3.26.31-5.07s.1-3.78.1-5.88q0-3.52-.09-6.18c-.07-1.77-.17-3.37-.32-4.82.28,0,.57.06.87.08s.65,0,1,0,.71,0,1,0,.6,0,.87-.08q-.1,1.91-.15,4c0,1.37-.06,2.95-.06,4.75,0,3,0,5.41,0,7.24s0,3.26.08,4.3h3.24a26.26,26.26,0,0,0,2.65-.13c.88-.08,1.77-.21,2.65-.38,0,.18-.05.37-.07.56a5.43,5.43,0,0,0,0,.57,5.15,5.15,0,0,0,0,.56c0,.17,0,.35.07.52l-2.92-.08-3,0-3.09,0Z" transform="translate(-413.67 -324.36)" style="fill:#071021;fill-rule:evenodd"/><path d="M614.75,355.16c.13-1.57.24-3.26.31-5.07s.1-3.78.1-5.88c0-2.35,0-4.41-.1-6.18s-.17-3.37-.31-4.82c.27,0,.56.06.87.08s.64,0,1,0,.7,0,1,0,.6,0,.88-.08c-.07,1.27-.12,2.59-.16,4s-.05,2.95-.05,4.75q0,4.5,0,7.24c0,1.83,0,3.26.09,4.3h3.24a25.92,25.92,0,0,0,2.64-.13c.88-.08,1.77-.21,2.66-.38a5,5,0,0,0-.07.56,5.44,5.44,0,0,0,0,.57,5.12,5.12,0,0,0,0,.56,4.63,4.63,0,0,0,.07.52l-2.92-.08-3,0-3.09,0Z" transform="translate(-413.67 -324.36)" style="fill:#071021;fill-rule:evenodd"/><path d="M628.74,355.18c.13-1.57.24-3.26.31-5.07s.1-3.76.1-5.87c0-2.35,0-4.4-.09-6.17s-.17-3.36-.32-4.79l3.1.07,3,0c1,0,2,0,2.92,0s1.86-.05,2.75-.09a5.52,5.52,0,0,0-.07.55,7.3,7.3,0,0,0,0,1.08c0,.2,0,.4.07.61a17.69,17.69,0,0,0-2.45-.39,27.22,27.22,0,0,0-2.81-.13H632.3v7.78h3.21c.68,0,1.39,0,2.12-.06s1.52-.11,2.34-.2a4.34,4.34,0,0,0-.05.53c0,.14,0,.28,0,.41s0,.54.05,1v.17c-1.05-.09-1.94-.16-2.7-.2s-1.36-.06-1.84-.06H632.3v3.38c0,.73,0,1.59,0,2.57s0,2,.08,3.17h2.93c.86,0,1.73-.05,2.6-.13s1.77-.21,2.66-.39a2,2,0,0,0-.05.44c0,.15,0,.38,0,.7s0,.53,0,.68,0,.28,0,.4l-2.75-.08c-.94,0-1.92,0-2.91,0s-2,0-3,0Z" transform="translate(-413.67 -324.36)" style="fill:#071021;fill-rule:evenodd"/><path d="M445.45,337.64s-3.65-2.7-8.82-5.84a91.25,91.25,0,0,0-8.47-4.58c-.65-.34-1.32-.68-2-1a20,20,0,0,0-4.52-1.65,6.27,6.27,0,0,0-5.23.88,7.68,7.68,0,0,0-2.59,4.71,13.37,13.37,0,0,0,.3,5.24c1.41,5.35,4.87,9.57,8.48,12.94l.39-.57a37.87,37.87,0,0,1-4.78-5.85,19.29,19.29,0,0,1-3.21-8.69,8.74,8.74,0,0,1,.8-4.75,4.13,4.13,0,0,1,3.53-2.54c3-.05,5.93,1.77,8.61,3.24,1.49.89,3,1.88,4.49,2.88a135,135,0,0,1,10.89,8.34l.09.05a1.72,1.72,0,0,0,2.35-.36A1.74,1.74,0,0,0,445.45,337.64Z" transform="translate(-413.67 -324.36)" style="fill:#071021;fill-rule:evenodd"/><path d="M464.13,326.61a5.7,5.7,0,0,0-4.73-2.07,14,14,0,0,0-4.93,1.27,62.15,62.15,0,0,0-11.89,7.28l.54.29c1.41-1,3.12-2.17,5.09-3.36a42.43,42.43,0,0,1,8.42-4,7.58,7.58,0,0,1,4.75-.11,5,5,0,0,1,2.89,3.51,10.69,10.69,0,0,1,0,4.47c0,.09-.05.17-.07.25a25.84,25.84,0,0,1-4.3,8.5,49.65,49.65,0,0,1-9.07,9.12l-.08.06-.18.15h0a1.59,1.59,0,1,0,2.29,2.21,54.61,54.61,0,0,0,6.88-7.52,34.29,34.29,0,0,0,4.74-8.53,21.13,21.13,0,0,0,1.14-4.69,15.08,15.08,0,0,0,.14-2A7.74,7.74,0,0,0,464.13,326.61Z" transform="translate(-413.67 -324.36)" style="fill:#f15800;fill-rule:evenodd"/><path d="M436.94,361.49c-.44.11-.9.21-1.39.3a12.11,12.11,0,0,1-9.63-2.19,4.1,4.1,0,0,1-1.5-2,5.74,5.74,0,0,1,.48-4.43,23.56,23.56,0,0,1,4-5.46,1.46,1.46,0,0,0-2.28-1.81v0a22.18,22.18,0,0,0-2.82,4.81,10.22,10.22,0,0,0-1.07,5.28,5.79,5.79,0,0,0,2.2,3.91,8.43,8.43,0,0,0,1.68,1.17,12.37,12.37,0,0,0,5.07,1.53,15.58,15.58,0,0,0,5.93-.78Z" transform="translate(-413.67 -324.36)" style="fill:#f15800;fill-rule:evenodd"/><path d="M457.06,352.83l-.23.25c.05.15.1.3.14.46a6,6,0,0,1-.59,4.83,9.17,9.17,0,0,1-4.34,3.27l-.11,0a12.08,12.08,0,0,1-2.86.5,12.58,12.58,0,0,1-4.92-.85A30.64,30.64,0,0,1,438,358a1.16,1.16,0,0,0-1.22,2s0,.05.08.06a28.62,28.62,0,0,0,5.12,2.23,16.55,16.55,0,0,0,5.17,1,11.23,11.23,0,0,0,5.08-1.11l.21-.15c.37-.16.73-.34,1.09-.54a7.81,7.81,0,0,0,3.71-3.89A6.92,6.92,0,0,0,457.06,352.83Z" transform="translate(-413.67 -324.36)" style="fill:#071021;fill-rule:evenodd"/></svg>